# xmcd
#
# Track frame offsets:
#       150
#       23187
#       61460
#       84882
#
# Disc length: 1325 seconds
#
# Revision: 11
# Processed by: cddbd v1.5.2PL0 Copyright (c) Steve Scherf et al.
# Submitted via: WaveLab 6.10
#
DISCID=26052b04
DTITLE=Modjo - Lady (Hear Me Tonight)
DYEAR=2000
DGENRE=House
TTITLE0=Lady (Hear Me Tonight) (Original Mix)
TTITLE1=Lady (Hear Me Tonight) (Harry "Choo Choo" Romero's Titanium Dub)
TTITLE2=Lady (Hear Me Tonight) (Roy's Universal Soldiers Mix)
TTITLE3=Lady (Hear Me Tonight) (Acoustic)
EXTD=
EXTT0=
EXTT1=
EXTT2=
EXTT3=
PLAYORDER=
